<?xml version="1.0" encoding="utf-8"?>
<!-- Generator: Adobe Illustrator 28.0.0, SVG Export Plug-In . SVG Version: 6.00 Build 0)  -->
<svg version="1.1" id="Capa_2_00000135678772867382107370000014550798071954197416_"
	 xmlns="http://www.w3.org/2000/svg" xmlns:xlink="http://www.w3.org/1999/xlink" x="0px" y="0px" viewBox="0 0 432.4 60.7"
	 style="enable-background:new 0 0 432.4 60.7;" xml:space="preserve">
<style type="text/css">
	.st0{fill:#898989;}
	.st1{fill:#FFFFFF;}
	.st2{fill:#DD8E00;}
	.st3{fill:#424242;}
	.st4{fill:#515143;}
	.st5{fill:#E89600;}
</style>
<g id="Textos">
	<path class="st0" d="M167.1,24.9h2.2v1.9h0.1c0.6-0.7,1.3-1.2,2.1-1.6s1.7-0.6,2.6-0.6c1,0,2,0.2,2.8,0.5c0.9,0.3,1.6,0.8,2.2,1.4
		c0.6,0.6,1.1,1.3,1.4,2.2c0.3,0.8,0.5,1.8,0.5,2.7c0,0.9-0.2,1.9-0.5,2.7s-0.8,1.6-1.4,2.2s-1.3,1.1-2.1,1.4
		c-0.8,0.3-1.6,0.5-2.6,0.5c-1.2,0-2.2-0.2-3.1-0.8c-0.9-0.5-1.5-1.1-1.9-1.9h-0.1v8.7h-2.2V24.9L167.1,24.9z M169.2,31.4
		c0,0.7,0.1,1.3,0.3,1.9s0.5,1.1,0.9,1.5s0.9,0.8,1.5,1s1.2,0.4,1.9,0.4s1.3-0.1,1.9-0.4c0.6-0.2,1-0.6,1.5-1s0.7-1,0.9-1.5
		c0.2-0.6,0.3-1.2,0.3-1.9s-0.1-1.3-0.3-1.9s-0.5-1.1-0.9-1.5s-0.9-0.8-1.5-1s-1.2-0.4-1.9-0.4s-1.3,0.1-1.9,0.4
		c-0.6,0.2-1.1,0.6-1.5,1s-0.7,1-0.9,1.5C169.4,30.1,169.2,30.7,169.2,31.4z"/>
	<path class="st0" d="M183.5,31.4c0-1,0.2-2,0.5-2.8s0.8-1.6,1.4-2.2c0.6-0.6,1.4-1.1,2.2-1.4c0.9-0.3,1.8-0.5,2.8-0.5
		s1.9,0.2,2.8,0.5c0.9,0.3,1.6,0.8,2.2,1.4c0.6,0.6,1.1,1.3,1.4,2.2c0.4,0.8,0.5,1.8,0.5,2.8c0,1-0.2,2-0.5,2.8s-0.8,1.6-1.4,2.2
		c-0.6,0.6-1.4,1.1-2.2,1.4c-0.8,0.3-1.8,0.5-2.8,0.5s-1.9-0.2-2.8-0.5c-0.9-0.3-1.6-0.8-2.2-1.4c-0.6-0.6-1.1-1.3-1.4-2.2
		C183.6,33.4,183.5,32.4,183.5,31.4z M185.8,31.4c0,0.7,0.1,1.3,0.3,1.9s0.5,1.1,0.9,1.5s0.9,0.8,1.5,1s1.2,0.4,1.9,0.4
		s1.3-0.1,1.9-0.4s1.1-0.6,1.5-1s0.7-1,0.9-1.5c0.2-0.6,0.3-1.2,0.3-1.9s-0.1-1.3-0.3-1.9s-0.5-1.1-0.9-1.5s-0.9-0.8-1.5-1
		s-1.2-0.4-1.9-0.4s-1.3,0.1-1.9,0.4c-0.6,0.2-1.1,0.6-1.5,1s-0.7,1-0.9,1.5S185.8,30.7,185.8,31.4z"/>
	<path class="st0" d="M200.8,28c0-0.6,0-1.1-0.1-1.7s-0.1-1-0.1-1.4h2.1c0,0.4,0,0.7,0,1.1s0,0.7,0,1.1h0.1c0.1-0.3,0.4-0.6,0.6-0.9
		c0.3-0.3,0.6-0.6,1-0.8c0.4-0.2,0.8-0.4,1.2-0.6s1-0.2,1.5-0.2c0.1,0,0.3,0,0.4,0c0.1,0,0.3,0.1,0.4,0.1l-0.1,2.2
		c-0.4-0.1-0.8-0.2-1.2-0.2c-1.3,0-2.3,0.4-2.9,1.3c-0.6,0.9-0.9,2-0.9,3.5v6.4h-2.2L200.8,28L200.8,28z"/>
	<path class="st0" d="M212.4,24.5c0.5,0,0.9,0.2,1.2,0.5s0.5,0.7,0.5,1.2s-0.2,0.9-0.5,1.2c-0.3,0.3-0.7,0.5-1.2,0.5
		s-0.8-0.2-1.2-0.5c-0.3-0.3-0.5-0.7-0.5-1.2s0.2-0.9,0.5-1.2S211.9,24.5,212.4,24.5L212.4,24.5z M212.4,34.8c0.5,0,0.9,0.2,1.2,0.5
		s0.5,0.7,0.5,1.2s-0.2,0.9-0.5,1.2s-0.7,0.5-1.2,0.5s-0.8-0.2-1.2-0.5c-0.3-0.3-0.5-0.7-0.5-1.2s0.2-0.9,0.5-1.2
		S211.9,34.8,212.4,34.8L212.4,34.8z"/>
	<path class="st1" d="M226.5,18.2h2.3v19.7h-2.3V18.2z"/>
	<path class="st1" d="M233.3,18.2h7.6c0.6,0,1.3,0.1,2.1,0.2s1.4,0.4,2.2,0.7c0.7,0.3,1.4,0.8,2.1,1.3s1.2,1.1,1.7,1.9
		s0.9,1.6,1.2,2.5c0.3,1,0.4,2,0.4,3.2s-0.1,2.3-0.4,3.2c-0.3,0.9-0.7,1.8-1.2,2.5s-1.1,1.4-1.7,1.9s-1.4,0.9-2.1,1.3
		c-0.7,0.3-1.4,0.6-2.2,0.7s-1.4,0.2-2.1,0.2h-7.6V18.2L233.3,18.2z M235.7,35.8h4.5c1.1,0,2.2-0.2,3.1-0.5s1.8-0.8,2.5-1.4
		c0.7-0.6,1.3-1.4,1.7-2.4c0.4-1,0.6-2.1,0.6-3.5s-0.2-2.5-0.6-3.5s-1-1.8-1.7-2.4s-1.5-1.1-2.5-1.4s-2-0.5-3.1-0.5h-4.5
		C235.7,20.4,235.7,35.8,235.7,35.8z"/>
	<path class="st2" d="M255.8,34.8c0.5,0,0.9,0.2,1.2,0.5s0.5,0.7,0.5,1.2s-0.2,0.9-0.5,1.2s-0.7,0.5-1.2,0.5s-0.8-0.2-1.2-0.5
		c-0.3-0.3-0.5-0.7-0.5-1.2s0.2-0.9,0.5-1.2C254.9,34.9,255.3,34.8,255.8,34.8L255.8,34.8z"/>
	<path class="st1" d="M268.5,18.2h2.2l8.4,19.7h-2.7l-2-4.8h-9.9l-2,4.8h-2.6L268.5,18.2L268.5,18.2z M269.6,21.2L269.6,21.2
		l-4.2,9.7h8L269.6,21.2L269.6,21.2z"/>
	<path class="st1" d="M289.3,16.9h2.2V38h-2.2V16.9z"/>
	<path class="st1" d="M295.5,19.8c0-0.4,0.1-0.8,0.5-1.1c0.3-0.3,0.7-0.5,1.1-0.5s0.8,0.2,1.1,0.5c0.3,0.3,0.5,0.7,0.5,1.1
		c0,0.5-0.1,0.8-0.4,1.1c-0.3,0.3-0.7,0.5-1.1,0.5s-0.9-0.1-1.1-0.5C295.6,20.6,295.5,20.2,295.5,19.8L295.5,19.8z M296,24.9h2.2v13
		H296V24.9z"/>
	<path class="st1" d="M302.4,16.9h2.2v9.9h0.1c0.6-0.7,1.3-1.2,2.1-1.6c0.8-0.4,1.7-0.6,2.6-0.6c1,0,2,0.2,2.8,0.5s1.6,0.8,2.2,1.4
		s1.1,1.3,1.4,2.2s0.5,1.8,0.5,2.7c0,1-0.2,1.9-0.5,2.7s-0.8,1.6-1.4,2.2c-0.6,0.6-1.3,1.1-2.1,1.4c-0.8,0.3-1.6,0.5-2.6,0.5
		c-1.2,0-2.2-0.2-3.1-0.8c-0.9-0.5-1.5-1.1-1.9-1.9h-0.1v2.3h-2.2V16.9L302.4,16.9z M304.5,31.4c0,0.7,0.1,1.3,0.3,1.9
		s0.5,1.1,0.9,1.5s0.9,0.8,1.5,1s1.2,0.4,1.9,0.4c0.7,0,1.3-0.1,1.9-0.4s1-0.6,1.5-1s0.7-1,0.9-1.5s0.3-1.2,0.3-1.9
		s-0.1-1.3-0.3-1.9s-0.5-1.1-0.9-1.5s-0.9-0.8-1.5-1s-1.2-0.4-1.9-0.4c-0.7,0-1.3,0.1-1.9,0.4c-0.6,0.2-1.1,0.6-1.5,1
		s-0.7,1-0.9,1.5C304.7,30.1,304.5,30.7,304.5,31.4z"/>
	<path class="st1" d="M319.5,28c0-0.6,0-1.1-0.1-1.7s-0.1-1-0.1-1.4h2.1c0,0.4,0,0.7,0,1.1s0,0.7,0,1.1h0.1c0.1-0.3,0.4-0.6,0.6-0.9
		s0.6-0.6,1-0.8c0.4-0.2,0.8-0.4,1.2-0.6c0.5-0.1,1-0.2,1.5-0.2c0.2,0,0.3,0,0.5,0c0.1,0,0.3,0.1,0.5,0.1l-0.1,2.2
		c-0.4-0.1-0.8-0.2-1.2-0.2c-1.3,0-2.3,0.4-2.9,1.3s-0.9,2-0.9,3.5v6.4h-2.2V28z"/>
	<path class="st1" d="M340.5,35.6c-0.8,1-1.6,1.7-2.6,2.1c-0.9,0.4-2,0.6-3.2,0.6c-1,0-1.9-0.2-2.8-0.5s-1.5-0.8-2.1-1.5
		s-1-1.3-1.3-2.2s-0.5-1.7-0.5-2.7s0.2-1.9,0.5-2.8s0.8-1.6,1.4-2.2s1.3-1.1,2.1-1.4c0.8-0.3,1.7-0.5,2.7-0.5c0.9,0,1.8,0.1,2.5,0.5
		s1.4,0.8,2,1.3s1,1.3,1.3,2.1s0.5,1.8,0.5,2.9V32h-10.5c0,0.6,0.2,1.1,0.4,1.6s0.5,1,0.9,1.3c0.4,0.4,0.8,0.7,1.3,0.9
		s1.1,0.3,1.6,0.3c1,0,1.8-0.2,2.4-0.5s1.2-0.8,1.8-1.5L340.5,35.6L340.5,35.6z M338.6,30.2c0-1.1-0.4-2-1.1-2.7s-1.6-1-2.8-1
		s-2.2,0.3-2.9,1s-1.2,1.6-1.3,2.7H338.6L338.6,30.2z"/>
	<g>
		<rect x="361.9" y="0.2" class="st3" width="2" height="60.5"/>
	</g>
	<path class="st4" d="M407.7,58.6c-0.6,0-1.2-0.1-1.9-0.2c-1.8-0.5-3.4-1.7-4.3-3.3c-1-1.7-1.2-3.6-0.7-5.4c0.2-0.8,0.5-1.5,0.9-2.1
		c-0.8,0-1.5,0-2.3-0.2c-1.8-0.5-3.4-1.7-4.3-3.3V44c-1.4-2.4-2.2-5-2.5-7.8c-3.1-2.7-4.6-6.8-3.7-10.9c0.1-0.5,0.3-0.9,0.6-1.2
		c-1.9-2.9-2.4-6.6-1-10.1c0.3-0.8,0.9-1.4,1.6-1.7c-1.6-3.3-1.6-7.2,0.3-10.6c0.8-1.5,2.7-2,4.2-1.1l2,1.1l0,0l26,15
		c3.1,1.8,5.6,4.3,7.4,7.4c2.6,4.6,3.4,10.1,2,15.2s-4.8,9.5-9.3,12.1l-11.2,6.4C410.1,58.3,408.9,58.6,407.7,58.6 M412.4,28.1
		c-1,0-2,0.3-2.8,0.8c-1.3,0.8-2.3,2-2.7,3.5c-0.4,1.5-0.2,3,0.6,4.3l0.1,0.1c1,1.6,1.2,3.6,0.7,5.4c-0.1,0.3-0.2,0.6-0.3,0.8
		l7.4-4.2c1.3-0.8,2.3-2,2.7-3.5c0.4-1.5,0.2-3-0.6-4.4c-0.5-0.9-1.2-1.6-2-2.1c-0.4-0.2-1.1-0.5-1.5-0.6
		C413.4,28.2,412.9,28.1,412.4,28.1"/>
	<path class="st1" d="M427.5,25.1c-1.6-2.8-3.8-4.9-6.4-6.4l-28-16.1l0,0c-0.2-0.2-0.6-0.1-0.7,0.2c-2.4,4.2-1,9.5,3.2,11.9L403,19
		l-11.8-4.5c-0.3-0.1-0.6,0-0.7,0.3l0,0c-1.7,4.5,0.5,9.5,5,11.2l0.7,0.3l-4.6-1c-0.3-0.1-0.5,0.1-0.6,0.4l0,0
		c-0.8,3.6,0.8,7.1,3.7,9.1c0.1,2.7,0.9,5.4,2.3,7.8v0.1c1.3,2.2,4.1,3,6.3,1.7s3-4.1,1.7-6.3V38c-1.1-2-1.4-4.2-0.8-6.3
		s1.9-3.9,3.9-5s4.2-1.4,6.3-0.8c0.6,0.2,1.5,0.6,2,0.8c1.2,0.7,2.3,1.7,3,3c1.1,2,1.4,4.2,0.8,6.3s-1.9,3.9-3.9,5l-11.2,6.4
		c-2.2,1.3-3,4.1-1.7,6.3s4.1,3,6.3,1.7l11.2-6.4c4.2-2.4,7-6.3,8.2-10.6C430.4,34.1,429.9,29.3,427.5,25.1"/>
	<path class="st5" d="M405.7,40.5c0,2.5-2.1,4.6-4.6,4.6s-4.6-2.1-4.6-4.6s2.1-4.6,4.6-4.6S405.7,37.9,405.7,40.5"/>
	<path class="st5" d="M409.8,55.5l11.4-6.5c2.2-1.3,3-4.2,1.7-6.4s-4.2-3-6.4-1.7l-11.4,6.5c-2.2,1.3-3,4.2-1.7,6.4
		S407.5,56.7,409.8,55.5"/>
	<g>
		<path class="st0" d="M0,18.2h7.6c0.7,0,1.3,0.1,2.1,0.2c0.7,0.1,1.4,0.4,2.2,0.7s1.4,0.7,2.1,1.3c0.7,0.5,1.2,1.1,1.7,1.9
			c0.5,0.7,0.9,1.6,1.2,2.5c0.3,1,0.4,2,0.4,3.2s-0.1,2.3-0.4,3.2c-0.3,1-0.7,1.8-1.2,2.5c-0.5,0.7-1.1,1.4-1.7,1.9
			c-0.7,0.5-1.3,0.9-2.1,1.3s-1.4,0.6-2.2,0.7c-0.7,0.1-1.4,0.2-2.1,0.2H0V18.2z M2.3,35.8h4.5c1.1,0,2.2-0.1,3.2-0.4
			c1-0.3,1.8-0.8,2.5-1.4s1.3-1.4,1.7-2.4c0.4-1,0.6-2.1,0.6-3.5s-0.2-2.5-0.6-3.5c-0.4-1-1-1.8-1.7-2.4S11,21.1,10,20.8
			s-2-0.4-3.2-0.4H2.3V35.8z"/>
		<path class="st0" d="M32.3,35.6c-0.8,1-1.6,1.7-2.6,2.1c-0.9,0.4-2,0.6-3.2,0.6c-1,0-1.9-0.2-2.8-0.5c-0.8-0.4-1.5-0.9-2.1-1.5
			s-1-1.3-1.3-2.2c-0.3-0.8-0.5-1.7-0.5-2.7s0.2-1.9,0.5-2.8c0.3-0.8,0.8-1.6,1.4-2.2s1.3-1.1,2.1-1.4c0.8-0.3,1.7-0.5,2.7-0.5
			c0.9,0,1.7,0.2,2.5,0.5s1.4,0.8,2,1.3s1,1.3,1.3,2.1c0.3,0.8,0.4,1.8,0.4,2.9V32H22.2c0,0.6,0.2,1.1,0.4,1.6
			c0.2,0.5,0.5,1,0.9,1.3c0.4,0.4,0.8,0.7,1.3,0.9s1,0.3,1.6,0.3c0.9,0,1.7-0.2,2.4-0.5c0.7-0.3,1.2-0.8,1.8-1.5L32.3,35.6z
			 M30.4,30.3c0-1.1-0.4-2-1.1-2.7s-1.6-1-2.8-1c-1.2,0-2.2,0.3-2.9,1c-0.7,0.7-1.2,1.6-1.3,2.7H30.4z"/>
		<path class="st0" d="M36.4,34.5c0.4,0.5,0.9,1,1.4,1.3s1.2,0.5,1.9,0.5c0.3,0,0.7,0,1-0.1s0.7-0.2,0.9-0.4
			c0.3-0.2,0.5-0.4,0.7-0.6c0.2-0.3,0.3-0.6,0.3-0.9c0-0.4-0.1-0.6-0.2-0.9c-0.2-0.2-0.4-0.4-0.6-0.6s-0.6-0.3-0.9-0.4
			c-0.3-0.1-0.7-0.2-1-0.3c-0.6-0.1-1.2-0.3-1.8-0.4c-0.6-0.2-1-0.4-1.5-0.7c-0.4-0.3-0.8-0.6-1-1c-0.3-0.4-0.4-1-0.4-1.6
			s0.1-1.2,0.4-1.7s0.7-0.9,1.1-1.2c0.5-0.3,1-0.6,1.6-0.7c0.6-0.2,1.2-0.3,1.8-0.3c0.9,0,1.8,0.2,2.6,0.6s1.4,1,1.9,1.8l-1.8,1.2
			c-0.3-0.5-0.6-0.8-1.1-1.1c-0.5-0.3-1-0.4-1.7-0.4c-0.3,0-0.6,0-0.9,0.1s-0.6,0.2-0.8,0.3c-0.2,0.1-0.4,0.3-0.6,0.6
			c-0.2,0.2-0.2,0.5-0.2,0.8s0.1,0.5,0.3,0.7s0.4,0.4,0.7,0.5s0.7,0.3,1.1,0.4c0.4,0.1,0.8,0.2,1.2,0.3c0.6,0.1,1.1,0.3,1.6,0.4
			s1,0.4,1.4,0.7c0.4,0.3,0.7,0.7,0.9,1.1s0.3,1,0.3,1.6c0,0.7-0.1,1.4-0.4,1.9s-0.7,0.9-1.2,1.3s-1.1,0.6-1.7,0.7
			c-0.6,0.1-1.3,0.2-1.9,0.2c-1.1,0-2.1-0.2-2.9-0.5s-1.5-1-2.2-1.9L36.4,34.5z"/>
		<path class="st0" d="M47.8,26.6c0.7-0.7,1.5-1.2,2.4-1.5s1.9-0.5,2.8-0.5c1.9,0,3.3,0.5,4.2,1.4s1.3,2.3,1.3,4.2v5.6
			c0,0.4,0,0.8,0.1,1.2c0,0.4,0.1,0.8,0.1,1.1h-2.1c-0.1-0.3-0.1-0.6-0.1-1s0-0.7,0-1h-0.1c-0.4,0.7-1,1.2-1.7,1.6
			c-0.7,0.4-1.6,0.6-2.6,0.6c-0.7,0-1.3-0.1-1.9-0.3c-0.6-0.2-1.1-0.4-1.5-0.7s-0.8-0.7-1-1.2s-0.4-1-0.4-1.7c0-1.1,0.3-1.9,0.8-2.5
			s1.2-1.1,2.1-1.4c0.8-0.3,1.7-0.5,2.7-0.6s1.8-0.1,2.6-0.1h0.8v-0.4c0-0.9-0.3-1.7-0.9-2.1S54,26.6,53,26.6
			c-0.7,0-1.4,0.1-2.1,0.3c-0.7,0.2-1.3,0.6-1.8,1.1L47.8,26.6z M54.1,31.7c-1.4,0-2.5,0.2-3.3,0.6c-0.8,0.4-1.2,1-1.2,1.9
			c0,0.8,0.3,1.4,0.8,1.7s1.2,0.5,2,0.5c0.6,0,1.2-0.1,1.7-0.3s0.9-0.5,1.2-0.9s0.6-0.8,0.7-1.2c0.2-0.5,0.3-1,0.3-1.5v-0.8H54.1z"
			/>
		<path class="st0" d="M62.5,28c0-0.6,0-1.2-0.1-1.7c0-0.5-0.1-1-0.1-1.4h2.1c0,0.4,0,0.7,0,1.1s0,0.7,0,1.1h0.1
			c0.1-0.3,0.4-0.6,0.6-0.9c0.3-0.3,0.6-0.6,1-0.8c0.4-0.2,0.8-0.4,1.3-0.6c0.5-0.1,1-0.2,1.5-0.2c0.1,0,0.3,0,0.4,0
			s0.3,0.1,0.4,0.1l-0.1,2.2c-0.4-0.1-0.8-0.2-1.2-0.2c-1.3,0-2.3,0.4-2.9,1.3s-0.9,2-0.9,3.6V38h-2.2L62.5,28L62.5,28z"/>
		<path class="st0" d="M72.3,28c0-0.6,0-1.2-0.1-1.7c0-0.5-0.1-1-0.1-1.4h2.1c0,0.4,0,0.7,0,1.1s0,0.7,0,1.1h0.1
			c0.1-0.3,0.4-0.6,0.6-0.9c0.3-0.3,0.6-0.6,1-0.8c0.4-0.2,0.8-0.4,1.3-0.6c0.5-0.1,1-0.2,1.5-0.2c0.1,0,0.3,0,0.4,0
			s0.3,0.1,0.4,0.1l-0.1,2.2c-0.4-0.1-0.8-0.2-1.2-0.2c-1.3,0-2.3,0.4-2.9,1.3s-0.9,2-0.9,3.6V38h-2.2L72.3,28L72.3,28z"/>
		<path class="st0" d="M80.9,31.4c0-1,0.2-2,0.5-2.8c0.4-0.8,0.8-1.6,1.4-2.2s1.3-1.1,2.2-1.4s1.8-0.5,2.8-0.5s1.9,0.2,2.8,0.5
			s1.6,0.8,2.2,1.4s1.1,1.3,1.4,2.2c0.4,0.8,0.5,1.8,0.5,2.8c0,1-0.2,2-0.5,2.8c-0.4,0.8-0.8,1.6-1.4,2.2c-0.6,0.6-1.3,1.1-2.2,1.4
			c-0.9,0.3-1.8,0.5-2.8,0.5s-1.9-0.2-2.8-0.5s-1.6-0.8-2.2-1.4c-0.6-0.6-1.1-1.3-1.4-2.2C81,33.4,80.9,32.4,80.9,31.4z M83.2,31.4
			c0,0.7,0.1,1.3,0.3,1.9c0.2,0.6,0.5,1.1,0.9,1.5s0.9,0.8,1.5,1c0.6,0.3,1.2,0.4,1.9,0.4s1.3-0.1,1.9-0.4c0.6-0.2,1.1-0.6,1.5-1
			s0.7-0.9,0.9-1.5c0.2-0.6,0.3-1.2,0.3-1.9c0-0.7-0.1-1.3-0.3-1.9c-0.2-0.6-0.5-1.1-0.9-1.5s-0.9-0.8-1.5-1
			c-0.6-0.3-1.2-0.4-1.9-0.4s-1.3,0.1-1.9,0.4s-1.1,0.6-1.5,1s-0.7,0.9-0.9,1.5C83.3,30.1,83.2,30.7,83.2,31.4z"/>
		<path class="st0" d="M98.4,16.9h2.2V38h-2.2V16.9z"/>
		<path class="st0" d="M105.1,16.9h2.2V38h-2.2V16.9z"/>
		<path class="st0" d="M111.4,26.6c0.7-0.7,1.5-1.2,2.4-1.5s1.9-0.5,2.8-0.5c1.9,0,3.3,0.5,4.2,1.4c0.9,0.9,1.3,2.3,1.3,4.2v5.6
			c0,0.4,0,0.8,0.1,1.2c0,0.4,0.1,0.8,0.1,1.1h-2.1c-0.1-0.3-0.1-0.6-0.1-1s0-0.7,0-1H120c-0.4,0.7-1,1.2-1.7,1.6
			c-0.7,0.4-1.6,0.6-2.6,0.6c-0.7,0-1.3-0.1-1.9-0.3s-1.1-0.4-1.5-0.7s-0.8-0.7-1-1.2s-0.4-1-0.4-1.7c0-1.1,0.3-1.9,0.8-2.5
			s1.2-1.1,2.1-1.4c0.8-0.3,1.7-0.5,2.7-0.6s1.8-0.1,2.6-0.1h0.8v-0.4c0-0.9-0.3-1.7-0.9-2.1s-1.4-0.7-2.4-0.7
			c-0.7,0-1.4,0.1-2.1,0.3c-0.7,0.2-1.3,0.6-1.8,1.1L111.4,26.6z M117.7,31.7c-1.4,0-2.5,0.2-3.3,0.6c-0.8,0.4-1.2,1-1.2,1.9
			c0,0.8,0.3,1.4,0.8,1.7s1.2,0.5,2,0.5c0.6,0,1.2-0.1,1.7-0.3s0.9-0.5,1.2-0.9c0.3-0.4,0.6-0.8,0.7-1.2c0.2-0.5,0.3-1,0.3-1.5v-0.8
			H117.7z"/>
		<path class="st0" d="M136.9,35.6L136.9,35.6c-0.5,0.7-1.1,1.4-2,1.9s-1.9,0.8-3.1,0.8c-0.9,0-1.8-0.2-2.6-0.5s-1.5-0.8-2.1-1.4
			s-1-1.3-1.4-2.2c-0.3-0.8-0.5-1.7-0.5-2.7s0.2-1.9,0.5-2.7c0.3-0.8,0.8-1.6,1.4-2.2s1.3-1.1,2.2-1.4c0.8-0.3,1.8-0.5,2.8-0.5
			c0.9,0,1.8,0.2,2.6,0.6s1.5,0.9,2.1,1.6h0.1V17h2.2v21.1h-2.2L136.9,35.6L136.9,35.6z M136.9,31.4c0-0.7-0.1-1.3-0.3-1.9
			s-0.5-1.1-0.9-1.5s-0.9-0.8-1.5-1c-0.6-0.3-1.2-0.4-1.9-0.4s-1.3,0.1-1.9,0.4c-0.6,0.3-1.1,0.6-1.5,1s-0.7,0.9-0.9,1.5
			s-0.3,1.2-0.3,1.9s0.1,1.3,0.3,1.9c0.2,0.6,0.5,1.1,0.9,1.5s0.9,0.8,1.5,1c0.6,0.3,1.2,0.4,1.9,0.4s1.3-0.1,1.9-0.4
			c0.6-0.2,1.1-0.6,1.5-1s0.7-0.9,0.9-1.5C136.8,32.7,136.9,32.1,136.9,31.4z"/>
		<path class="st0" d="M142.3,31.4c0-1,0.2-2,0.5-2.8c0.4-0.8,0.8-1.6,1.4-2.2c0.6-0.6,1.3-1.1,2.2-1.4s1.8-0.5,2.8-0.5
			s1.9,0.2,2.8,0.5c0.9,0.3,1.6,0.8,2.2,1.4c0.6,0.6,1.1,1.3,1.4,2.2c0.4,0.8,0.5,1.8,0.5,2.8c0,1-0.2,2-0.5,2.8
			c-0.4,0.8-0.8,1.6-1.4,2.2c-0.6,0.6-1.3,1.1-2.2,1.4c-0.9,0.3-1.8,0.5-2.8,0.5s-1.9-0.2-2.8-0.5c-0.9-0.3-1.6-0.8-2.2-1.4
			c-0.6-0.6-1.1-1.3-1.4-2.2C142.5,33.4,142.3,32.4,142.3,31.4z M144.7,31.4c0,0.7,0.1,1.3,0.3,1.9s0.5,1.1,0.9,1.5s0.9,0.8,1.5,1
			c0.6,0.3,1.2,0.4,1.9,0.4s1.3-0.1,1.9-0.4c0.6-0.2,1.1-0.6,1.5-1s0.7-0.9,0.9-1.5s0.3-1.2,0.3-1.9c0-0.7-0.1-1.3-0.3-1.9
			s-0.5-1.1-0.9-1.5s-0.9-0.8-1.5-1c-0.6-0.3-1.2-0.4-1.9-0.4s-1.3,0.1-1.9,0.4c-0.6,0.3-1.1,0.6-1.5,1s-0.7,0.9-0.9,1.5
			S144.7,30.7,144.7,31.4z"/>
	</g>
</g>
</svg>
